<svg id="Layer_1" data-name="Layer 1" xmlns="http://www.w3.org/2000/svg" width="256" height="256" viewBox="0 0 256 256"><title>sloth-bg</title><path d="M86,0H64.9A13.6,13.6,0,1,0,86,0Zm36.8,0-.2.7-.6,1L118.7,0H93a9.8,9.8,0,0,0,9.5,7.2,9.7,9.7,0,0,0,4.3-1l8.4,4.5c-8.4,10-22.9,23.7-39.7,23.7S44.1,20.7,35.8,10.7l8.4-4.5a9.8,9.8,0,0,0,4.3,1A9.8,9.8,0,0,0,57.9,0H32.1L29,1.7l-.6-1L28.1,0H20.5a19.9,19.9,0,0,0,1.1,3.9l.2.4C22.7,5.8,45,41.8,75.4,41.8s52.7-36,53.6-37.5l.2-.4A19.9,19.9,0,0,0,130.4,0ZM75.4,22.1A13.6,13.6,0,0,0,86,0H64.9A13.6,13.6,0,0,0,75.4,22.1ZM86,0H64.9A13.6,13.6,0,1,0,86,0Z" fill="#d8c2ab"/><path d="M75.4,250.9A13.5,13.5,0,0,0,64.9,256H86A13.5,13.5,0,0,0,75.4,250.9Zm53.5-9.4c-3.5-8.7-11.7-15.7-24.3-20.7-8.4-3.4-16.3-6.2-29.1-6.7h-.3c-12.8.5-20.8,3.3-29.1,6.7-12.5,5-20.7,12-24.2,20.7A25.5,25.5,0,0,0,20.5,256h7.6a17.9,17.9,0,0,1,.8-11.8c2.8-6.7,9.6-12.2,20.1-16.5,8-3.2,15-5.7,26.5-6.1s18.8,3,26.5,6.1c10.5,4.2,17.3,9.8,20.1,16.5a18,18,0,0,1,.8,11.8h7.6A25.5,25.5,0,0,0,129,241.5Zm-26.5,2a9.9,9.9,0,0,0-9.8,9.9A9.7,9.7,0,0,0,93,256h25.8l-6.5-3.5A9.8,9.8,0,0,0,102.5,243.5Zm-27,7.4A13.5,13.5,0,0,0,64.9,256H86A13.5,13.5,0,0,0,75.4,250.9Zm-27-7.4a9.8,9.8,0,0,0-9.8,9L32.1,256H57.9a9.7,9.7,0,0,0,.3-2.6A9.8,9.8,0,0,0,48.4,243.5Zm27,7.4A13.5,13.5,0,0,0,64.9,256H86A13.5,13.5,0,0,0,75.4,250.9Z" fill="#d8c2ab"/><path d="M194.1,136.5a13.6,13.6,0,1,1-13.6-13.6A13.6,13.6,0,0,1,194.1,136.5Zm40.3-4.6-.2.4c-.9,1.5-23.2,37.5-53.6,37.5s-52.7-36-53.6-37.5l-.2-.4a25,25,0,0,1,.3-18.4c3.6-8.7,11.7-15.6,24.2-20.7,8.4-3.4,16.3-6.2,29.1-6.7h.3c12.8.5,20.8,3.3,29.1,6.7,12.5,5,20.7,12,24.2,20.7A25,25,0,0,1,234.4,131.9Zm-14.2,6.8-8.4-4.5a9.8,9.8,0,1,1,5.5-9.7l9.7,5.2.6-1a17.7,17.7,0,0,0-.5-12.5c-2.8-6.7-9.6-12.2-20.1-16.5-7.7-3.1-15-5.7-26.5-6.1s-18.6,2.9-26.5,6.1c-10.5,4.2-17.3,9.8-20.1,16.5a17.7,17.7,0,0,0-.5,12.5l.6,1,9.7-5.2a9.9,9.9,0,1,1,5.5,9.7l-8.4,4.5c8.4,10,22.9,23.7,39.7,23.7S211.9,148.7,220.2,138.7Z" fill="#d8c2ab"/><path d="M28.1,256h4L29,257.7l-.6-1Z" fill="#fff" stroke="#000" stroke-miterlimit="10"/><path d="M122.8,256l-.2.7-.6,1-3.2-1.7Z" fill="#fff" stroke="#000" stroke-miterlimit="10"/></svg>